# xmcd
#
# Track frame offsets: 
#        150
#        13392
#        15159
#        30647
#        44945
#        47868
#        68332
#        83990
#        86584
#        96655
#        112796
#        127604
#        142012
#
# Disc length: 1985 seconds
#
# Revision: 1
# Processed by: cddbd v1.5.2PL0 Copyright (c) Steve Scherf et al.
# Submitted via: ExactAudioCopyFreeDBPlugin 1.0
#
DISCID=a607bf0d
DTITLE=Tinashe - Black Water
DYEAR=2013
DGENRE=R&B
TTITLE0=Black Water
TTITLE1=Before the Storm
TTITLE2=Vulnerable (feat. Travi$ Scott)
TTITLE3=Secret Weapon
TTITLE4=Video Tapes
TTITLE5=Midnight Sun
TTITLE6=1 For Me
TTITLE7=Daybreak
TTITLE8=Fugitive
TTITLE9=Stunt
TTITLE10=Just a Taste
TTITLE11=Middle of Nowhere
TTITLE12=Ain't Ready...
EXTD=
EXTT0=
EXTT1=
EXTT2=
EXTT3=
EXTT4=
EXTT5=
EXTT6=
EXTT7=
EXTT8=
EXTT9=
EXTT10=
EXTT11=
EXTT12=
PLAYORDER=
